<?xml version="1.0" encoding="UTF-8" standalone="no"?>
<!-- Created with Inkscape (http://www.inkscape.org/) -->

<svg
   version="1.1"
   id="svg148"
   width="1333.3333"
   height="1333.3333"
   viewBox="0 0 1333.3333 1333.3333"
   sodipodi:docname="abrimos_info.svg"
   inkscape:version="1.2.2 (b0a8486541, 2022-12-01)"
   xmlns:inkscape="http://www.inkscape.org/namespaces/inkscape"
   xmlns:sodipodi="http://sodipodi.sourceforge.net/DTD/sodipodi-0.dtd"
   xmlns="http://www.w3.org/2000/svg"
   xmlns:svg="http://www.w3.org/2000/svg">
  <defs
     id="defs152">
    <clipPath
       clipPathUnits="userSpaceOnUse"
       id="clipPath176">
      <path
         d="M 0,1000 H 1000 V 0 H 0 Z"
         id="path174" />
    </clipPath>
  </defs>
  <sodipodi:namedview
     id="namedview150"
     pagecolor="#ffffff"
     bordercolor="#666666"
     borderopacity="1.0"
     inkscape:showpageshadow="2"
     inkscape:pageopacity="0.0"
     inkscape:pagecheckerboard="0"
     inkscape:deskcolor="#d1d1d1"
     showgrid="false"
     inkscape:zoom="0.82425008"
     inkscape:cx="666.05999"
     inkscape:cy="666.6666"
     inkscape:window-width="2256"
     inkscape:window-height="1361"
     inkscape:window-x="0"
     inkscape:window-y="0"
     inkscape:window-maximized="1"
     inkscape:current-layer="g156">
    <inkscape:page
       x="0"
       y="0"
       id="page154"
       width="1333.3333"
       height="1333.3333" />
  </sodipodi:namedview>
  <g
     id="g156"
     inkscape:groupmode="layer"
     inkscape:label="Page 1"
     transform="matrix(1.3333333,0,0,-1.3333333,0,1333.3333)">
    <path
       d="M 0,0 H 1000 V 1000 H 0 Z"
       style="fill:#b31918;fill-opacity:1;fill-rule:nonzero;stroke:none"
       id="path158" />
    <path
       d="M 207.193,455.078 H 348.238 V 234.732 H 207.193 Z"
       style="fill:#ffffff;fill-opacity:1;fill-rule:nonzero;stroke:none"
       id="path160" />
    <g
       id="g162"
       transform="translate(108.6094,487.3128)">
      <path
         d="m 0,0 v -284.815 l 83.835,28.844 V -28.844 Z M 3,-4.205 80.835,-30.984 V -253.831 L 3,-280.611 Z"
         style="fill:#ffffff;fill-opacity:1;fill-rule:nonzero;stroke:none"
         id="path164" />
    </g>
    <g
       id="g166"
       transform="translate(207.1899,220.3398)">
      <path
         d="M 0,0 -207.19,-72.83 V -220.34 H 767.85 L 141.05,0 Z"
         style="fill:#ffffff;fill-opacity:1;fill-rule:nonzero;stroke:none"
         id="path168" />
    </g>
    <g
       id="g170">
      <g
         id="g172"
         clip-path="url(#clipPath176)">
        <g
           id="g178"
           transform="translate(415.5273,373.61)">
          <path
             d="m 0,0 c 0,-2.059 0.479,-3.911 1.436,-5.544 0.958,-1.64 2.237,-2.923 3.836,-3.843 1.602,-0.92 3.376,-1.377 5.329,-1.377 2.024,0 3.811,0.457 5.357,1.377 1.545,0.92 2.769,2.203 3.67,3.843 0.901,1.633 1.352,3.485 1.352,5.544 0,2.065 -0.451,3.911 -1.352,5.551 -0.901,1.633 -2.125,2.922 -3.67,3.861 -1.546,0.939 -3.333,1.408 -5.357,1.408 C 8.648,10.82 6.874,10.351 5.272,9.412 3.673,8.473 2.394,7.184 1.436,5.551 0.479,3.911 0,2.065 0,0 m 21.202,-22.635 v 7.341 c -0.332,-0.732 -1.17,-1.803 -2.513,-3.198 -1.342,-1.402 -3.119,-2.66 -5.328,-3.786 -2.206,-1.12 -4.785,-1.684 -7.729,-1.684 -4.418,0 -8.282,1.077 -11.593,3.23 -3.313,2.152 -5.891,5.043 -7.731,8.667 -1.84,3.629 -2.76,7.647 -2.76,12.065 0,4.418 0.92,8.436 2.76,12.065 1.84,3.624 4.418,6.521 7.731,8.693 3.311,2.171 7.175,3.26 11.593,3.26 2.835,0 5.319,-0.451 7.453,-1.352 2.134,-0.901 3.865,-1.971 5.191,-3.204 1.324,-1.233 2.244,-2.365 2.76,-3.392 v 6.621 H 37.71 v -45.326 z"
             style="fill:#ffffff;fill-opacity:1;fill-rule:nonzero;stroke:none"
             id="path180" />
        </g>
        <g
           id="g182"
           transform="translate(501.3232,373.61)">
          <path
             d="m 0,0 c 0,2.065 -0.451,3.911 -1.352,5.551 -0.901,1.633 -2.134,2.922 -3.698,3.861 -1.565,0.939 -3.323,1.408 -5.272,1.408 -2.025,0 -3.84,-0.469 -5.439,-1.408 -1.602,-0.939 -2.863,-2.228 -3.782,-3.861 -0.92,-1.64 -1.38,-3.486 -1.38,-5.551 0,-2.059 0.46,-3.911 1.38,-5.544 0.919,-1.64 2.18,-2.923 3.782,-3.843 1.599,-0.92 3.414,-1.377 5.439,-1.377 1.949,0 3.707,0.457 5.272,1.377 1.564,0.92 2.797,2.203 3.698,3.843 C -0.451,-3.911 0,-2.059 0,0 m -37.707,-22.635 v 75.971 h 16.784 V 16.07 c 0.331,1.027 1.186,2.159 2.565,3.392 1.383,1.233 3.204,2.303 5.467,3.204 2.265,0.901 4.831,1.352 7.703,1.352 4.415,0 8.245,-1.089 11.483,-3.26 3.239,-2.172 5.742,-5.069 7.51,-8.693 1.765,-3.629 2.65,-7.647 2.65,-12.065 0,-4.418 -0.885,-8.436 -2.65,-12.065 -1.768,-3.624 -4.271,-6.515 -7.51,-8.667 -3.238,-2.153 -7.068,-3.23 -11.483,-3.23 -2.431,0 -4.721,0.432 -6.874,1.302 -2.153,0.864 -4.011,1.965 -5.576,3.311 -1.564,1.345 -2.716,2.697 -3.451,4.055 v -7.341 z"
             style="fill:#ffffff;fill-opacity:1;fill-rule:nonzero;stroke:none"
             id="path184" />
        </g>
        <g
           id="g186"
           transform="translate(540.9076,350.9752)">
          <path
             d="M 0,0 H -16.784 V 45.326 H 0 v -7.009 h -0.275 c 0.294,0.845 1.013,1.921 2.152,3.229 1.142,1.308 2.744,2.485 4.803,3.53 2.062,1.051 4.584,1.577 7.566,1.577 2.097,0 4.03,-0.326 5.795,-0.964 1.768,-0.645 3.057,-1.264 3.867,-1.852 L 17.394,30.201 c -0.516,0.625 -1.427,1.276 -2.735,1.958 -1.308,0.682 -2.935,1.02 -4.884,1.02 -2.247,0 -4.096,-0.569 -5.551,-1.708 C 2.769,30.326 1.702,28.949 1.023,27.328 0.341,25.707 0,24.181 0,22.747 Z"
             style="fill:#ffffff;fill-opacity:1;fill-rule:nonzero;stroke:none"
             id="path188" />
        </g>
        <path
           d="m 569.894,396.301 h 16.784 v -45.326 h -16.784 z m 8.611,9.331 c -2.65,0 -4.894,0.932 -6.733,2.791 -1.843,1.858 -2.763,4.074 -2.763,6.652 0,2.572 0.929,4.812 2.788,6.708 1.858,1.897 4.095,2.841 6.708,2.841 1.73,0 3.314,-0.431 4.75,-1.295 1.433,-0.864 2.594,-2.015 3.476,-3.454 0.886,-1.433 1.327,-3.035 1.327,-4.8 0,-2.578 -0.939,-4.794 -2.816,-6.652 -1.878,-1.859 -4.124,-2.791 -6.737,-2.791"
           style="fill:#ffffff;fill-opacity:1;fill-rule:nonzero;stroke:none"
           id="path190" />
        <g
           id="g192"
           transform="translate(660.6026,397.6278)">
          <path
             d="m 0,0 c 3.423,0 6.443,-0.707 9.055,-2.128 2.613,-1.414 4.665,-3.598 6.155,-6.539 1.492,-2.948 2.237,-6.74 2.237,-11.377 V -46.653 H 0.939 v 24.074 c 0,3.161 -0.479,5.72 -1.436,7.673 -0.958,1.952 -2.851,2.922 -5.686,2.922 -1.693,0 -3.185,-0.438 -4.471,-1.32 -1.289,-0.883 -2.284,-2.109 -2.982,-3.674 -0.701,-1.564 -1.048,-3.429 -1.048,-5.601 v -24.074 h -15.404 v 24.074 c 0,3.161 -0.526,5.72 -1.574,7.673 -1.048,1.952 -2.897,2.922 -5.548,2.922 -1.695,0 -3.185,-0.432 -4.474,-1.295 -1.289,-0.864 -2.272,-2.078 -2.954,-3.642 -0.679,-1.565 -1.02,-3.455 -1.02,-5.658 v -24.074 h -16.674 v 45.326 h 16.674 v -6.458 c 0.442,1.139 1.408,2.309 2.898,3.505 1.492,1.195 3.341,2.209 5.55,3.035 2.206,0.832 4.544,1.245 7.009,1.245 2.688,0 4.935,-0.394 6.737,-1.189 1.802,-0.788 3.285,-1.846 4.446,-3.173 1.158,-1.326 2.087,-2.759 2.788,-4.305 0.513,1.326 1.536,2.659 3.063,3.999 1.527,1.345 3.442,2.459 5.742,3.341 C -5.125,-0.444 -2.65,0 0,0"
             style="fill:#ffffff;fill-opacity:1;fill-rule:nonzero;stroke:none"
             id="path194" />
        </g>
        <g
           id="g196"
           transform="translate(710.8974,363.4534)">
          <path
             d="m 0,0 c 1.912,0 3.57,0.419 4.969,1.27 1.398,0.845 2.484,2.04 3.257,3.586 0.773,1.546 1.158,3.298 1.158,5.244 0,1.99 -0.385,3.755 -1.158,5.301 -0.773,1.545 -1.859,2.759 -3.257,3.648 -1.399,0.882 -3.057,1.32 -4.969,1.32 -1.915,0 -3.58,-0.438 -4.997,-1.32 C -6.414,18.16 -7.519,16.946 -8.31,15.401 -9.102,13.855 -9.496,12.09 -9.496,10.1 -9.496,8.154 -9.102,6.402 -8.31,4.856 -7.519,3.31 -6.414,2.115 -4.997,1.27 -3.58,0.419 -1.915,0 0,0 m 0,-13.805 c -4.969,0 -9.378,1.02 -13.223,3.066 -3.849,2.04 -6.865,4.857 -9.055,8.449 -2.19,3.585 -3.286,7.697 -3.286,12.34 0,4.637 1.096,8.768 3.286,12.391 2.19,3.623 5.206,6.489 9.055,8.586 3.845,2.096 8.254,3.147 13.223,3.147 4.969,0 9.346,-1.051 13.138,-3.147 3.793,-2.097 6.756,-4.963 8.89,-8.586 2.134,-3.623 3.201,-7.754 3.201,-12.391 0,-4.643 -1.067,-8.755 -3.201,-12.34 -2.134,-3.592 -5.097,-6.409 -8.89,-8.449 C 9.346,-12.785 4.969,-13.805 0,-13.805"
             style="fill:#ffffff;fill-opacity:1;fill-rule:nonzero;stroke:none"
             id="path198" />
        </g>
        <g
           id="g200"
           transform="translate(765.166,397.6278)">
          <path
             d="m 0,0 c 2.982,0 5.707,-0.25 8.173,-0.745 2.465,-0.5 4.537,-1.057 6.211,-1.683 1.674,-0.626 2.75,-1.145 3.229,-1.546 l -5.466,-9.881 c -0.698,0.513 -1.997,1.177 -3.893,1.984 -1.896,0.807 -4.002,1.214 -6.32,1.214 -1.768,0 -3.258,-0.269 -4.472,-0.801 -1.214,-0.532 -1.821,-1.371 -1.821,-2.51 0,-1.145 0.67,-2.052 2.015,-2.734 1.343,-0.682 3.283,-1.277 5.823,-1.796 2.209,-0.438 4.453,-1.139 6.737,-2.097 2.281,-0.957 4.187,-2.365 5.714,-4.224 1.526,-1.858 2.29,-4.33 2.29,-7.422 0,-3.166 -0.682,-5.782 -2.043,-7.841 -1.361,-2.065 -3.164,-3.661 -5.41,-4.806 -2.244,-1.139 -4.675,-1.94 -7.288,-2.397 -2.612,-0.463 -5.153,-0.694 -7.619,-0.694 -3.46,0 -6.467,0.313 -9.027,0.938 -2.559,0.626 -4.627,1.346 -6.211,2.153 -1.583,0.814 -2.687,1.458 -3.313,1.934 l 5.413,11.045 c 0.954,-0.814 2.519,-1.721 4.69,-2.735 2.172,-1.014 4.475,-1.52 6.903,-1.52 2.356,0 4.177,0.35 5.466,1.051 1.286,0.701 1.931,1.621 1.931,2.76 0,0.92 -0.313,1.658 -0.939,2.209 -0.626,0.55 -1.508,1.026 -2.647,1.433 -1.142,0.406 -2.522,0.776 -4.143,1.107 -1.471,0.294 -3.035,0.751 -4.693,1.377 -1.656,0.626 -3.22,1.483 -4.691,2.572 -1.473,1.083 -2.669,2.453 -3.589,4.112 -0.923,1.652 -1.379,3.66 -1.379,6.013 0,3.023 0.973,5.526 2.925,7.51 1.949,1.99 4.471,3.486 7.563,4.499 C -6.79,-0.507 -3.495,0 0,0"
             style="fill:#ffffff;fill-opacity:1;fill-rule:nonzero;stroke:none"
             id="path202" />
        </g>
        <path
           d="m 400.457,301.281 h 11.762 v -45.326 h -11.762 z m 6.017,13.586 c -1.987,0 -3.689,0.713 -5.107,2.153 -1.417,1.433 -2.124,3.141 -2.124,5.131 0,1.99 0.707,3.711 2.124,5.163 1.418,1.452 3.12,2.178 5.107,2.178 1.326,0 2.55,-0.338 3.673,-1.02 1.123,-0.682 2.024,-1.565 2.703,-2.647 0.683,-1.089 1.024,-2.31 1.024,-3.674 0,-1.99 -0.72,-3.698 -2.153,-5.131 -1.436,-1.44 -3.185,-2.153 -5.247,-2.153"
           style="fill:#ffffff;fill-opacity:1;fill-rule:nonzero;stroke:none"
           id="path204" />
        <g
           id="g206"
           transform="translate(451.468,302.6078)">
          <path
             d="m 0,0 c 3.057,0 6.02,-0.626 8.889,-1.877 2.873,-1.252 5.235,-3.248 7.097,-5.989 1.855,-2.741 2.788,-6.308 2.788,-10.682 V -46.653 H 6.902 v 25.952 c 0,4.08 -0.966,7.09 -2.897,9.024 -1.934,1.933 -4.427,2.897 -7.481,2.897 -2.025,0 -3.958,-0.569 -5.798,-1.708 -1.84,-1.145 -3.339,-2.691 -4.5,-4.637 -1.157,-1.953 -1.739,-4.199 -1.739,-6.74 v -24.788 h -11.815 v 45.326 h 11.815 v -7.616 c 0.331,1.252 1.223,2.566 2.678,3.949 1.455,1.377 3.304,2.553 5.548,3.53 C -5.041,-0.488 -2.613,0 0,0"
             style="fill:#ffffff;fill-opacity:1;fill-rule:nonzero;stroke:none"
             id="path208" />
        </g>
        <g
           id="g210"
           transform="translate(476.3119,301.2811)">
          <path
             d="m 0,0 h 8.724 v 12.591 c 0,4.524 0.844,8.217 2.537,11.07 1.693,2.848 3.855,4.95 6.49,6.289 2.628,1.346 5.344,2.015 8.141,2.015 3.423,0 6.045,-0.469 7.869,-1.408 1.821,-0.938 2.935,-1.589 3.339,-1.958 l -4.637,-8.83 c -0.222,0.219 -0.773,0.613 -1.655,1.182 -0.886,0.57 -2.081,0.858 -3.589,0.858 -1.105,0 -2.165,-0.257 -3.176,-0.77 C 23.029,20.52 22.175,19.506 21.477,17.998 20.776,16.49 20.426,14.281 20.426,11.377 V 0 H 32.848 V -9.938 H 20.426 V -45.326 H 8.724 v 35.388 l -8.724,0 z"
             style="fill:#ffffff;fill-opacity:1;fill-rule:nonzero;stroke:none"
             id="path212" />
        </g>
        <g
           id="g214"
           transform="translate(537.2639,264.5659)">
          <path
             d="m 0,0 c 2.65,0 4.95,0.607 6.902,1.821 1.95,1.22 3.458,2.872 4.525,4.969 1.067,2.102 1.602,4.493 1.602,7.178 0,2.691 -0.535,5.087 -1.602,7.209 -1.067,2.115 -2.575,3.798 -4.525,5.05 C 4.95,27.478 2.65,28.104 0,28.104 c -2.65,0 -4.959,-0.626 -6.927,-1.877 -1.972,-1.252 -3.499,-2.935 -4.584,-5.05 -1.086,-2.122 -1.631,-4.518 -1.631,-7.209 0,-2.685 0.545,-5.076 1.631,-7.178 1.085,-2.097 2.612,-3.749 4.584,-4.969 C -4.959,0.607 -2.65,0 0,0 m 0,-9.938 c -4.747,0 -8.971,1.046 -12.672,3.123 -3.699,2.078 -6.596,4.913 -8.696,8.498 -2.096,3.592 -3.144,7.666 -3.144,12.235 0,4.562 1.048,8.667 3.144,12.309 2.1,3.642 4.997,6.521 8.696,8.642 3.701,2.115 7.925,3.173 12.672,3.173 4.747,0 8.943,-1.058 12.588,-3.173 3.645,-2.121 6.505,-5 8.586,-8.642 2.077,-3.642 3.119,-7.747 3.119,-12.309 0,-4.569 -1.042,-8.643 -3.119,-12.235 -2.081,-3.585 -4.941,-6.42 -8.586,-8.498 C 8.943,-8.892 4.747,-9.938 0,-9.938"
             style="fill:#ffffff;fill-opacity:1;fill-rule:nonzero;stroke:none"
             id="path216" />
        </g>
      </g>
    </g>
  </g>
</svg>
